<svg xmlns="http://www.w3.org/2000/svg" viewBox="0 0 29 29" height="29" width="29"><title>bakery.svg</title><rect fill="none" x="0" y="0" width="29" height="29"></rect><rect x="0" y="0" width="29" height="29" rx="14.5" ry="14.5" fill="#000000"></rect><path fill="#90cc76" transform="translate(7 7)" d="M5.294,4.382,6,9.5a.979.979,0,0,0,1,1H8a.979.979,0,0,0,1-1l.706-5.118C9.706,3,7.5,3,7.5,3S5.291,3,5.294,4.382ZM3.5,5C2,5,2,6,2,6l1,4H4.5a.793.793,0,0,0,.794-.765L4.5,5Zm-2,2.5a1.533,1.533,0,0,0-1.059.412A1.366,1.366,0,0,0,0,8.794V11H.882A1.02,1.02,0,0,0,2,10ZM11.5,5C13,5,13,6,13,6l-1,4H10.5a.793.793,0,0,1-.794-.765L10.5,5Zm2,2.5a1.533,1.533,0,0,1,1.059.412A1.366,1.366,0,0,1,15,8.794V11h-.882A1.02,1.02,0,0,1,13,10Z"></path></svg>