<svg xmlns="http://www.w3.org/2000/svg" viewBox="0 0 29 29" height="29" width="29"><title>caution.svg</title><rect fill="none" x="0" y="0" width="29" height="29"></rect><rect x="0" y="0" width="29" height="29" rx="14.5" ry="14.5" fill="#000000"></rect><path fill="#90cc76" transform="translate(7 7)" d="M14.9,13.4L8.5,0.6c-0.4-0.8-1.5-0.8-1.9,0L0.1,13.4c-0.4,0.7,0.2,1.6,1,1.6h12.8C14.7,15,15.2,14.1,14.9,13.4z M7.5,13
	C6.7,13,6,12.3,6,11.5S6.6,10,7.5,10S9,10.7,9,11.5C9,12.4,8.3,13,7.5,13z M8.5,9h-2L6,5.5C6,5.2,6.2,5,6.5,5h2C8.8,5,9,5.2,9,5.5
	L8.5,9z"></path></svg>