<svg xmlns="http://www.w3.org/2000/svg" viewBox="0 0 29 29" height="29" width="29"><title>entrance-alt1.svg</title><rect fill="none" x="0" y="0" width="29" height="29"></rect><rect x="0" y="0" width="29" height="29" rx="14.5" ry="14.5" fill="#000000"></rect><path fill="#90cc76" transform="translate(7 7)" d="M6.554,9.639a.5.5,0,0,0,.707.707L9.928,7.669a.25.25,0,0,0,0-.354h0L7.261,4.639a.5.5,0,0,0-.707.707L8.2,7H1.5a.5.5,0,0,0,0,1H8.2ZM12,1H5.5a.5.5,0,0,0,0,1h6a.5.5,0,0,1,.5.5v10a.5.5,0,0,1-.5.5H5.25a.5.5,0,0,0,0,1H12a1,1,0,0,0,1-1V2A1,1,0,0,0,12,1Z"></path></svg>