<svg xmlns="http://www.w3.org/2000/svg" viewBox="0 0 29 29" height="29" width="29"><title>fire-station.svg</title><rect fill="none" x="0" y="0" width="29" height="29"></rect><rect x="0" y="0" width="29" height="29" rx="14.5" ry="14.5" fill="#000000"></rect><path fill="#90cc76" transform="translate(7 7)" d="M7.5,0.5L5,4.5l-1.5-2
	C2.9452,3.4753,0.8036,5.7924,0.8036,8.3036C0.8036,12.002,3.8017,15,7.5,15s6.6964-2.998,6.6964-6.6964
	c0-2.5112-2.1416-4.8283-2.6964-5.8036l-1.5,2L7.5,0.5z M7.5,7c0,0,2.5,2.5618,2.5,4.5c0,0.8371-0.8259,2-2.5,2S5,12.3371,5,11.5
	C5,9.6283,7.5,7,7.5,7z"></path></svg>