<svg xmlns="http://www.w3.org/2000/svg" viewBox="0 0 29 29" height="29" width="29"><title>highway-rest-area.svg</title><rect fill="none" x="0" y="0" width="29" height="29"></rect><rect x="0" y="0" width="29" height="29" rx="14.5" ry="14.5" fill="#000000"></rect><path fill="#90cc76" transform="translate(7 7)" d="M13.5,13h-3V9h3a.5.5,0,0,0,.4092-.7871L11.66,5h.84a.5.5,0,0,0,.3838-.82l-2.5-3a.5155.5155,0,0,0-.7676,0l-2.5,3A.5.5,0,0,0,7.5,5h.84L6.0908,8.2129A.5.5,0,0,0,6.5,9h3v4H4V11H5.5a.5.5,0,0,0,0-1h-4a.5.5,0,0,0,0,1H3v2H1.5a.5.5,0,0,0,0,1h12a.5.5,0,0,0,0-1Z"></path></svg>