<svg xmlns="http://www.w3.org/2000/svg" viewBox="0 0 29 29" height="29" width="29"><title>hospital-JP.svg</title><rect fill="none" x="0" y="0" width="29" height="29"></rect><rect x="0" y="0" width="29" height="29" rx="14.5" ry="14.5" fill="#000000"></rect><path fill="#90cc76" transform="translate(7 7)" d="M12.5038,2.25H2.496A1.0049,1.0049,0,0,0,1.5,3.2631V8.8438a1.0153,1.0153,0,0,0,.5507.9062l4.78,2.8394a1.4743,1.4743,0,0,0,1.3382,0L12.9493,9.75A1.015,1.015,0,0,0,13.5,8.8438V3.2631A1.0046,1.0046,0,0,0,12.5038,2.25ZM10.5,7.75h-2v2h-2v-2h-2v-2h2v-2h2v2h2Z"></path></svg>